HIERARCHY
ROOT Hips
{
	OFFSET 0.00000 0.00000 0.00000
	CHANNELS 6 Xposition Yposition Zposition Zrotation Yrotation Xrotation 
	JOINT LHipJoint
	{
		OFFSET 0 0 0
		CHANNELS 3 Zrotation Yrotation Xrotation
		JOINT LeftHip
		{
			OFFSET 1.28366 -1.58472 0.87544
			CHANNELS 3 Zrotation Yrotation Xrotation
			JOINT LeftKnee
			{
				OFFSET 2.18587 -6.00562 0.00000
				CHANNELS 3 Zrotation Yrotation Xrotation
				JOINT LeftAnkle
				{
					OFFSET 2.39085 -6.56880 0.00000
					CHANNELS 3 Zrotation Yrotation Xrotation
					JOINT LeftToe
					{
						OFFSET 0.12003 -0.32979 2.03101
						CHANNELS 3 Zrotation Yrotation Xrotation
						End Site
						{
							OFFSET 0.00000 -0.00000 1.04074
						}
					}
				}
			}
		}
	}
	JOINT RHipJoint
	{
		OFFSET 0 0 0
		CHANNELS 3 Zrotation Yrotation Xrotation
		JOINT RightHip
		{
			OFFSET -1.21795 -1.58472 0.87544
			CHANNELS 3 Zrotation Yrotation Xrotation
			JOINT RightKnee
			{
				OFFSET -2.22714 -6.11902 0.00000
				CHANNELS 3 Zrotation Yrotation Xrotation
				JOINT RightAnkle
				{
					OFFSET -2.40306 -6.60235 0.00000
					CHANNELS 3 Zrotation Yrotation Xrotation
					JOINT RightToe
					{
						OFFSET -0.15519 -0.42640 1.91430
						CHANNELS 3 Zrotation Yrotation Xrotation
						End Site
						{
							OFFSET -0.00000 -0.00000 0.99082
						}
					}
				}
			}
		}
	}
	JOINT lowerback
	{
		OFFSET 0 0 0
		CHANNELS 3 Zrotation Yrotation Xrotation
		JOINT Chest
		{
			OFFSET 0.01180 1.76430 -0.06387
			CHANNELS 3 Zrotation Yrotation Xrotation
			JOINT Chest2
			{
				OFFSET -0.00388 1.74651 0.09536
				CHANNELS 3 Zrotation Yrotation Xrotation
				JOINT lowerneck
				{
					OFFSET 0 0 0
					CHANNELS 3 Zrotation Yrotation Xrotation
					JOINT Neck
					{
						OFFSET 0.04111 1.46174 0.14397
						CHANNELS 3 Zrotation Yrotation Xrotation
						JOINT Head
						{
							OFFSET 0.00502 1.44580 -0.31711
							CHANNELS 3 Zrotation Yrotation Xrotation
							End Site
							{
								OFFSET -0.00395 1.49251 -0.12327
							}
						}
					}
				}
				JOINT LeftCollar
				{
					OFFSET 0 0 0
					CHANNELS 3 Zrotation Yrotation Xrotation
					JOINT LeftShoulder
					{
						OFFSET 2.70917 1.34870 -0.15417
CHANNELS 3 Zrotation Xrotation Yrotation
						JOINT LeftElbow
						{
OFFSET 0 -4.466100 -0.000000
CHANNELS 3 Zrotation Xrotation Yrotation
							JOINT LeftWrist
							{
OFFSET 0 -3.414140 0.000000
CHANNELS 3 Zrotation Xrotation Yrotation
								JOINT lhand
								{
									OFFSET 0 0 0
CHANNELS 3 Zrotation Xrotation Yrotation
									JOINT LFingers
									{
OFFSET 0 -0.328300 0.000000
CHANNELS 3 Zrotation Xrotation Yrotation
										End Site
										{
OFFSET 0 -0.264680 0.000000
										}
									}
								}
								JOINT LThumb
								{
OFFSET 0 0.000000 0.000000
CHANNELS 3 Zrotation Xrotation Yrotation
									End Site
									{
OFFSET 0 -0.268720 0.268720
									}
								}
							}
						}
					}
				}
				JOINT RightCollar
				{
					OFFSET 0 0 0
					CHANNELS 3 Zrotation Yrotation Xrotation
					JOINT RightShoulder
					{
						OFFSET -3.06316 1.13725 -0.10883
CHANNELS 3 Zrotation Xrotation Yrotation
						JOINT RightElbow
						{
OFFSET 0 -4.404310 0.000000
CHANNELS 3 Zrotation Xrotation Yrotation
							JOINT RightWrist
							{
OFFSET 0 -3.046880 0.000000
CHANNELS 3 Zrotation Xrotation Yrotation
								JOINT rhand
								{
									OFFSET 0 0 0
CHANNELS 3 Zrotation Xrotation Yrotation
									JOINT RFingers
									{
OFFSET 0 -0.500490 0.000000
CHANNELS 3 Zrotation Xrotation Yrotation
										End Site
										{
OFFSET 0 -0.403510 0.000000
										}
									}
								}
								JOINT RThumb
								{
OFFSET 0 0.000000 0.000000
CHANNELS 3 Zrotation Xrotation Yrotation
									End Site
									{
OFFSET 0 -0.409670 0.409670
									}
								}
							}
						}
					}
				}
			}
		}
	}
}
MOTION
Frames: 5
Frame Time: 0.008333333333333333
14.718782 14.513690 0.544881 178.022501 -20.050482 -173.929716 0.000000 0.000000 0.000000 -13.029007 23.593649 -41.278372 19.758940 19.998242 89.295262 -0.119206 -6.789988 6.054203 0.564439 -4.757486 -13.228622 0.000000 0.000000 0.000000 37.011672 -11.992982 -34.900143 -7.378345 -15.641994 50.290485 -1.845206 3.999972 -24.726773 -2.739912 -10.261317 29.827267 -3.622454 4.082774 6.027717 -9.255281 3.372983 -6.388390 -8.479328 1.097111 -9.952588 -4.746036 1.992459 -20.035843 18.517410 -2.428549 26.121462 7.516626 0.281731 12.303111 0.000000 0.000000 0.000000 71.524059 -7.091481 -53.769286 92.956830 -59.966558 62.560422 79.623348 -62.759143 24.612069 0.000000 0.000000 0.000000 -7.125000 0.000000 0.000000 29.108917 -32.652712 43.399123 0.000000 0.000000 0.000000 -39.563284 -16.387320 -21.420954 -148.672079 -42.003938 -107.710975 -27.820442 -99.230219 2.758949 0.000000 0.000000 0.000000 7.125000 0.000000 0.000000 -0.995270 33.097931 -0.289121
15.008672 14.662628 0.392477 178.224030 -20.258944 -173.267751 0.000000 0.000000 0.000000 -17.840315 23.597308 -39.361664 17.471672 19.844751 82.588986 -1.050993 -18.755606 13.507286 0.848457 -5.873920 -16.419401 0.000000 0.000000 0.000000 38.672762 -12.886195 -34.581882 -6.680753 -15.056957 47.656260 -1.291661 4.415381 -20.481210 -2.201129 -9.272940 26.652848 -3.742744 3.844552 5.358001 -9.079584 3.099259 -6.555138 -8.127864 0.984314 -9.784024 -3.465733 2.275571 -19.743179 17.124122 -2.110168 26.617507 6.782793 0.393217 12.363040 0.000000 0.000000 0.000000 71.042447 -7.318606 -56.213068 94.796386 -59.912805 64.152620 80.097626 -65.571359 26.758494 0.000000 0.000000 0.000000 -7.125000 0.000000 0.000000 28.762209 -35.441932 42.875856 0.000000 0.000000 0.000000 -43.966279 -17.011350 -26.174889 -145.923963 -44.140337 -105.833755 -32.116075 -98.460592 2.888392 0.000000 0.000000 0.000000 7.125000 0.000000 0.000000 -4.499407 33.364526 -1.286954
15.342428 14.817752 0.249592 178.361100 -20.364923 -171.930439 0.000000 0.000000 0.000000 -22.816416 22.985686 -37.765096 13.243712 18.861044 69.873952 -0.565253 -17.345427 18.535405 0.165022 -2.595298 -7.155153 0.000000 0.000000 0.000000 40.164005 -13.784644 -36.502082 -6.616467 -15.000098 47.408110 -0.616562 6.853623 -14.065569 -2.303311 -9.469217 27.275996 -4.596219 3.531451 4.323836 -8.803090 2.645229 -6.910081 -7.218664 0.823776 -9.672474 -2.216034 2.652402 -19.557980 15.998558 -1.771023 27.245303 6.188166 0.535751 12.516028 0.000000 0.000000 0.000000 70.594023 -7.669004 -58.336763 95.978238 -59.864499 65.174928 80.687509 -65.102091 25.970644 0.000000 0.000000 0.000000 -7.125000 0.000000 0.000000 29.542956 -35.586786 44.211986 0.000000 0.000000 0.000000 -48.584686 -17.181331 -30.138463 -142.171210 -46.726797 -103.158244 -36.255999 -97.074240 2.807110 0.000000 0.000000 0.000000 7.125000 0.000000 0.000000 -7.873026 33.384609 -2.258925
15.702076 14.975742 0.134776 178.437371 -20.283938 -170.872110 0.000000 0.000000 0.000000 -25.217163 22.036736 -34.817486 10.763797 17.817339 62.011918 -0.571619 -13.840949 9.382058 0.541960 -4.705406 -13.072004 0.000000 0.000000 0.000000 41.267244 -15.572578 -40.838722 -7.498072 -15.736922 50.733146 0.096414 8.953805 -4.241779 -2.230141 -9.329512 26.831932 -5.420975 3.183534 3.666420 -8.536342 2.195134 -6.855315 -6.348851 0.680693 -9.308578 -0.792356 3.027728 -19.990487 14.564359 -1.331989 27.734808 5.474953 0.744157 12.744047 0.000000 0.000000 0.000000 70.366007 -7.868296 -59.647357 98.164754 -59.746505 67.064902 81.118357 -65.084259 25.069533 0.000000 0.000000 0.000000 -7.125000 0.000000 0.000000 30.234489 -35.408812 45.404216 0.000000 0.000000 0.000000 -53.792965 -17.444615 -33.898998 -136.994233 -49.752189 -99.294510 -39.923461 -95.885603 2.655915 0.000000 0.000000 0.000000 7.125000 0.000000 0.000000 -10.840022 33.297112 -3.157886
16.047006 15.063520 0.071074 178.637336 -19.860265 -170.751067 0.000000 0.000000 0.000000 -25.534796 20.147845 -31.208469 9.088866 16.863811 56.395920 -0.502606 -13.201118 0.211623 0.594810 -4.907063 -13.649448 0.000000 0.000000 0.000000 40.334818 -16.331730 -46.752310 -9.613763 -17.184460 58.186222 0.155584 9.400524 9.993837 -2.600477 -10.006252 29.007712 -5.264447 2.883691 4.432973 -8.248553 1.833352 -6.604899 -6.108703 0.531677 -9.506068 1.028060 3.548409 -19.890934 12.353556 -0.372604 27.507230 4.417959 1.122035 12.535678 0.000000 0.000000 0.000000 70.614530 -7.833347 -60.887698 101.526049 -59.491529 69.964786 80.793089 -65.452897 25.013122 0.000000 0.000000 0.000000 -7.125000 0.000000 0.000000 29.966447 -34.850737 44.940264 0.000000 0.000000 0.000000 -59.857890 -18.037267 -37.101127 -129.727273 -53.098394 -93.606130 -43.360154 -94.129612 2.495272 0.000000 0.000000 0.000000 7.125000 0.000000 0.000000 -13.595957 33.180128 -4.037127
